<svg width="22" height="22" viewBox="0 0 22 22" fill="none" xmlns="http://www.w3.org/2000/svg">
<path opacity="0.4" fill-rule="evenodd" clip-rule="evenodd" d="M4.4032 20.3041C4.4032 19.3941 5.13986 18.6575 6.04987 18.6575C6.94903 18.6575 7.6857 19.3941 7.6857 20.3041C7.6857 21.2033 6.94903 21.94 6.04987 21.94C5.13986 21.94 4.4032 21.2033 4.4032 20.3041ZM16.5907 20.3041C16.5907 19.3941 17.3274 18.6575 18.2374 18.6575C19.1365 18.6575 19.8732 19.3941 19.8732 20.3041C19.8732 21.2033 19.1365 21.94 18.2374 21.94C17.3274 21.94 16.5907 21.2033 16.5907 20.3041Z" fill="#473B2F" fill-opacity="0.78"/>
<path fill-rule="evenodd" clip-rule="evenodd" d="M19.8734 4.87812C20.5342 4.87812 20.9676 5.10562 21.4009 5.60395C21.8342 6.10228 21.91 6.81728 21.8125 7.4662L20.7834 14.5729C20.5884 15.9389 19.4184 16.9454 18.0426 16.9454H6.22338C4.78255 16.9454 3.59089 15.8404 3.47172 14.4114L2.47505 2.60203L0.839219 2.32037C0.405885 2.24453 0.102552 1.82203 0.178385 1.3887C0.254219 0.944532 0.676719 0.652033 1.12089 0.717033L3.70463 1.10703C4.07297 1.17312 4.3438 1.47537 4.3763 1.8437L4.58214 4.27037C4.61463 4.61812 4.8963 4.87812 5.24297 4.87812H19.8734ZM13.3084 10.5104H16.3092C16.7642 10.5104 17.1217 10.142 17.1217 9.69787C17.1217 9.24287 16.7642 8.88537 16.3092 8.88537H13.3084C12.8534 8.88537 12.4959 9.24287 12.4959 9.69787C12.4959 10.142 12.8534 10.5104 13.3084 10.5104Z" fill="#473B2F" fill-opacity="0.78"/>
</svg>
