<svg width="18" height="18" viewBox="0 0 18 18" fill="none" xmlns="http://www.w3.org/2000/svg">
<path d="M14.139 11.1183C13.5793 10.9897 13.1364 11.2674 12.7444 11.5099C12.3428 11.7598 11.5793 12.4216 11.1416 12.2522C8.90089 11.2664 6.79343 9.1708 5.88115 6.76693C5.72036 6.2893 6.33686 5.46826 6.56902 5.03414C6.79429 4.6139 7.0488 4.13628 6.93273 3.53369C6.82783 2.99219 5.471 1.14741 4.99122 0.642937C4.6748 0.309709 4.35064 0.126433 4.01788 0.096813C2.76682 0.0394238 1.36959 1.82312 1.12453 2.24984C0.510611 3.15973 0.51405 4.37046 1.13485 5.83852C2.63097 9.78171 8.28955 15.7326 11.9937 17.3913C12.6773 17.7329 13.3024 17.9041 13.8639 17.9041C14.4133 17.9041 14.9025 17.7403 15.323 17.4154C15.6403 17.2201 17.378 15.653 17.3324 14.2803C17.3049 13.9304 17.1338 13.5805 16.826 13.2417C16.3574 12.7243 14.642 11.2313 14.139 11.1183Z" fill="#473B2F" fill-opacity="0.78"/>
</svg>
