<svg width="62" height="35" viewBox="0 0 62 35" fill="none" xmlns="http://www.w3.org/2000/svg">
<path d="M61.6594 17.5532L53.6555 8.41592C53.3945 8.11809 53.0177 7.94707 52.6216 7.94707H45.9568V2.30416C45.9568 1.54503 45.3413 0.929688 44.5823 0.929688H16.1943C15.4353 0.929688 14.8199 1.54503 14.8199 2.30416V4.15881H1.60043C0.841427 4.15881 0.225952 4.77415 0.225952 5.53328C0.225952 6.29242 0.841427 6.90775 1.60043 6.90775H14.8199V24.7251H6.86248C6.10348 24.7251 5.48801 25.3405 5.48801 26.0996C5.48801 26.8587 6.10348 27.4741 6.86248 27.4741H14.8199V28.8709C14.8199 29.63 15.4353 30.2454 16.1943 30.2454H19.0632C19.6676 32.4473 21.6856 34.0703 24.0769 34.0703C26.4682 34.0703 28.4862 32.4473 29.0907 30.2454H47.4308V30.2453C48.0353 32.4472 50.0532 34.0702 52.4445 34.0702C54.8358 34.0702 56.8538 32.4472 57.4583 30.2453H60.6256C61.3846 30.2453 62.0001 29.6299 62.0001 28.8708V18.4587C61.9999 18.1256 61.8788 17.8037 61.6594 17.5532ZM24.0769 31.3214C22.7257 31.3214 21.6266 30.2221 21.6266 28.8709C21.6266 27.5198 22.7257 26.4205 24.0769 26.4205C25.4281 26.4205 26.5273 27.5198 26.5273 28.8709C26.5273 30.2221 25.4281 31.3214 24.0769 31.3214ZM29.0904 27.4964C28.486 25.2945 26.4679 23.6715 24.0766 23.6715C21.6854 23.6715 19.6675 25.2945 19.0629 27.4964H17.5685V3.6785H43.2073V27.4964H29.0904ZM52.4442 31.3214C51.0931 31.3214 49.9939 30.2221 49.9939 28.8709C49.9939 27.5198 51.0931 26.4205 52.4442 26.4205C53.7954 26.4205 54.8947 27.5198 54.8947 28.8709C54.8947 30.2221 53.7955 31.3214 52.4442 31.3214ZM59.251 27.4964H57.4581C56.8536 25.2945 54.8355 23.6715 52.4442 23.6715C50.053 23.6715 48.0351 25.2945 47.4306 27.4964H45.9564V10.696H51.998L59.2509 18.9756V27.4964H59.251Z" fill="#473B2F"/>
</svg>
