<svg width="31" height="30" viewBox="0 0 31 30" fill="none" xmlns="http://www.w3.org/2000/svg">
<path opacity="0.4" fill-rule="evenodd" clip-rule="evenodd" d="M6.61963 27.0249C6.61963 25.7999 7.6113 24.8082 8.8363 24.8082C10.0467 24.8082 11.0384 25.7999 11.0384 27.0249C11.0384 28.2353 10.0467 29.227 8.8363 29.227C7.6113 29.227 6.61963 28.2353 6.61963 27.0249ZM23.0259 27.0249C23.0259 25.7999 24.0175 24.8082 25.2425 24.8082C26.453 24.8082 27.4446 25.7999 27.4446 27.0249C27.4446 28.2353 26.453 29.227 25.2425 29.227C24.0175 29.227 23.0259 28.2353 23.0259 27.0249Z" fill="#F7F7F7"/>
<path fill-rule="evenodd" clip-rule="evenodd" d="M27.4449 6.25893C28.3345 6.25893 28.9178 6.56518 29.5012 7.23601C30.0845 7.90685 30.1866 8.86935 30.0553 9.74289L28.6699 19.3096C28.4074 21.1485 26.8324 22.5033 24.9803 22.5033H9.06991C7.13033 22.5033 5.52616 21.0158 5.36575 19.0923L4.02408 3.19497L1.822 2.81581C1.23866 2.71372 0.83033 2.14497 0.932414 1.56164C1.0345 0.963723 1.60325 0.569973 2.20116 0.657473L5.67929 1.18247C6.17512 1.27143 6.53971 1.67831 6.58346 2.17414L6.86054 5.44081C6.90429 5.90893 7.28346 6.25893 7.75012 6.25893H27.4449ZM18.6074 13.8408H22.647C23.2595 13.8408 23.7408 13.345 23.7408 12.7471C23.7408 12.1346 23.2595 11.6533 22.647 11.6533H18.6074C17.9949 11.6533 17.5137 12.1346 17.5137 12.7471C17.5137 13.345 17.9949 13.8408 18.6074 13.8408Z" fill="#F7F7F7"/>
</svg>
