<svg width="22" height="28" viewBox="0 0 22 28" fill="none" xmlns="http://www.w3.org/2000/svg">
<path fill-rule="evenodd" clip-rule="evenodd" d="M5.79747 1.35905C9.07477 -0.411577 13.1031 -0.380629 16.3497 1.44011C19.5643 3.29794 21.5181 6.61362 21.4999 10.1804C21.4251 13.7237 19.3301 17.0544 16.7113 19.6293C15.1998 21.1221 13.509 22.4421 11.6733 23.5624C11.4843 23.664 11.2772 23.7321 11.0623 23.7632C10.8555 23.755 10.654 23.6981 10.4762 23.5978C7.67368 21.9145 5.21503 19.7659 3.21851 17.2552C1.54789 15.1595 0.598754 12.6275 0.500002 10.0032C0.497833 6.42961 2.52016 3.12967 5.79747 1.35905ZM7.69136 11.482C8.24265 12.7457 9.5439 13.57 10.9875 13.57C11.9333 13.5763 12.8424 13.2241 13.5124 12.5918C14.1823 11.9595 14.5574 11.0996 14.554 10.2038C14.5591 8.8365 13.6933 7.60114 12.361 7.07457C11.0287 6.548 9.49269 6.83408 8.4701 7.79924C7.4475 8.7644 7.14008 10.2183 7.69136 11.482Z" fill="#473B2F" fill-opacity="0.78"/>
<ellipse opacity="0.4" cx="11.0001" cy="26.5527" rx="7.50004" ry="1.39475" fill="#473B2F" fill-opacity="0.78"/>
</svg>
