<svg width="28" height="28" viewBox="0 0 28 28" fill="none" xmlns="http://www.w3.org/2000/svg">
<g clip-path="url(#clip0)">
<path d="M20.1913 0.5H7.80864C3.77859 0.5 0.5 3.77859 0.5 7.80864V20.1915C0.5 24.2214 3.77859 27.5 7.80864 27.5H20.1915C24.2214 27.5 27.5 24.2214 27.5 20.1915V7.80864C27.5 3.77859 24.2214 0.5 20.1913 0.5V0.5ZM14 21.3826C9.92914 21.3826 6.61738 18.0708 6.61738 14C6.61738 9.92914 9.92914 6.61738 14 6.61738C18.0708 6.61738 21.3826 9.92914 21.3826 14C21.3826 18.0708 18.0708 21.3826 14 21.3826ZM21.5591 8.35844C20.3561 8.35844 19.3776 7.37997 19.3776 6.17697C19.3776 4.97397 20.3561 3.99529 21.5591 3.99529C22.7621 3.99529 23.7408 4.97397 23.7408 6.17697C23.7408 7.37997 22.7621 8.35844 21.5591 8.35844Z" fill="#473B2F" fill-opacity="0.78"/>
<path d="M14 8.2002C10.8021 8.2002 8.20023 10.8019 8.20023 13.9999C8.20023 17.1978 10.8021 19.7997 14 19.7997C17.198 19.7997 19.7997 17.1978 19.7997 13.9999C19.7997 10.8019 17.198 8.2002 14 8.2002Z" fill="#473B2F" fill-opacity="0.78"/>
<path d="M21.5591 5.57837C21.2291 5.57837 20.9605 5.84698 20.9605 6.17699C20.9605 6.50699 21.2291 6.7756 21.5591 6.7756C21.8893 6.7756 22.1579 6.50719 22.1579 6.17699C22.1579 5.84678 21.8893 5.57837 21.5591 5.57837Z" fill="#473B2F" fill-opacity="0.78"/>
</g>
<defs>
<clipPath id="clip0">
<rect width="27" height="27" fill="white" transform="translate(0.5 0.5)"/>
</clipPath>
</defs>
</svg>
