<svg width="26" height="26" viewBox="0 0 26 26" fill="none" xmlns="http://www.w3.org/2000/svg">
<path d="M20.7085 15.974C19.8689 15.7934 19.2047 16.1832 18.6165 16.5237C18.0142 16.8745 16.8689 17.8036 16.2124 17.5658C12.8513 16.1819 9.69014 13.24 8.32171 9.86547C8.08053 9.19497 9.00528 8.04239 9.35351 7.43297C9.69143 6.84303 10.0732 6.17254 9.89908 5.32662C9.74173 4.56646 7.7065 1.97673 6.98682 1.26855C6.51219 0.800766 6.02595 0.543482 5.52681 0.501901C3.65022 0.421337 1.55437 2.92531 1.18679 3.52433C0.265907 4.80166 0.271066 6.50129 1.20227 8.56216C3.44644 14.0977 11.9343 22.4516 17.4906 24.7801C18.5159 25.2596 19.4536 25.5 20.2958 25.5C21.1199 25.5 21.8538 25.27 22.4845 24.8139C22.9604 24.5397 25.567 22.3398 25.4987 20.4128C25.4574 19.9216 25.2007 19.4304 24.739 18.9549C24.0361 18.2285 21.463 16.1325 20.7085 15.974Z" fill="#473B2F" fill-opacity="0.78"/>
</svg>
